<?xml version="1.0" ?><!-- Uploaded to: SVG Repo, www.svgrepo.com, Generator: SVG Repo Mixer Tools -->
<svg fill="#000000" width="800px" height="800px" viewBox="0 0 512 512" id="icon" xmlns="http://www.w3.org/2000/svg"><title/><path d="M422.91,321.37a5.59,5.59,0,0,0-7.31,3l-26.93,64.5a22.77,22.77,0,1,0,10.2,4.58l27-64.77A5.59,5.59,0,0,0,422.91,321.37ZM384.77,422.8a11.56,11.56,0,1,1,11.56-11.56A11.57,11.57,0,0,1,384.77,422.8Z"/><path d="M359.68,262.1a5.59,5.59,0,0,0-3.33-7.17l-1.36-.5a5.59,5.59,0,0,0-3.84,10.5l1.37.49a5.37,5.37,0,0,0,1.91.35A5.6,5.6,0,0,0,359.68,262.1Z"/><path d="M305.51,242.3a5.58,5.58,0,0,0,3.33,7.16l20.76,7.59a5.59,5.59,0,0,0,7.17-3.33,5.57,5.57,0,0,0-3.33-7.16L312.68,239A5.59,5.59,0,0,0,305.51,242.3Z"/><path d="M230.22,183.93a5.58,5.58,0,0,0-.29,7.89l25.11,27a21,21,0,0,0,4.4,27.9L249,286.4a5.59,5.59,0,0,0,4,6.82,5.82,5.82,0,0,0,1.42.18,5.59,5.59,0,0,0,5.4-4.17l10-38.06a20.65,20.65,0,0,0,2.84.22,21.07,21.07,0,1,0,0-42.13,20.85,20.85,0,0,0-9.22,2.16l-25.32-27.21A5.58,5.58,0,0,0,230.22,183.93Zm52.32,46.39a9.87,9.87,0,0,1-14.18,8.9l-.05,0a9.89,9.89,0,1,1,14.23-8.88Z"/><path d="M176.34,123a5.6,5.6,0,0,0-.48,7.89l16.36,18.48a19,19,0,1,0,8.37-7.41l-16.36-18.48A5.6,5.6,0,0,0,176.34,123Zm39.79,36.19a7.76,7.76,0,1,1-12.9-5.78h0v0a7.68,7.68,0,0,1,5.11-1.94A7.77,7.77,0,0,1,216.13,159.15Z"/><path d="M78.76,67.2a10.67,10.67,0,0,1,9.66,6.18,5.59,5.59,0,0,0,10.14-4.7,21.81,21.81,0,1,0-19.8,31,21.65,21.65,0,0,0,12.46-3.91,5.59,5.59,0,1,0-6.39-9.17,10.51,10.51,0,0,1-6.07,1.91,10.65,10.65,0,0,1,0-21.29Z"/><path d="M174.84,99.66a18.9,18.9,0,0,0-35.22-9.57l-22.38-6.65a5.59,5.59,0,1,0-3.18,10.71l23,6.84a18.91,18.91,0,0,0,37.78-1.33Zm-18.92,7.75a7.75,7.75,0,1,1,7.75-7.75A7.76,7.76,0,0,1,155.92,107.41Z"/><path d="M260.6,342.72l84.67,52.87a5.59,5.59,0,0,0,5.91-9.48l-84-52.42a21.76,21.76,0,0,0-3-21.23,5.59,5.59,0,0,0-8.86,6.81,10.53,10.53,0,0,1,2.2,6.48,10.64,10.64,0,1,1-15.17-9.63,5.58,5.58,0,1,0-4.77-10.1,21.82,21.82,0,0,0,9.3,41.55A21.68,21.68,0,0,0,260.6,342.72Z"/><path d="M436,267.14a21.8,21.8,0,0,0-18.42,10.17l-37.86-13.83A5.58,5.58,0,0,0,375.9,274l38.34,14c0,.33-.05.65-.05,1a21.75,21.75,0,0,0,3.12,11.23,5.58,5.58,0,1,0,9.57-5.76,10.64,10.64,0,1,1,13.51,4.22,5.59,5.59,0,0,0,2.31,10.68,5.52,5.52,0,0,0,2.3-.5,21.82,21.82,0,0,0-9-41.69Z"/><path d="M45.09,198.82a42.3,42.3,0,0,1,13.16,10.89,5.59,5.59,0,1,0,8.59-7.15,59.28,59.28,0,0,0-8.18-8.14,50.55,50.55,0,0,0,18.06-21.58c3.73,7.49,9.4,16,17.6,21.79-7.92,7.06-20,20.72-22.21,40A5.59,5.59,0,0,0,77,240.78a4.73,4.73,0,0,0,.65,0,5.59,5.59,0,0,0,5.54-4.94c2.7-23.17,24-37.2,24.17-37.34a5.58,5.58,0,0,0-.91-9.87c-18.38-7.47-25-34.55-25-34.82a5.59,5.59,0,0,0-11,.47C66.52,181.58,46.78,188.24,46,188.5a5.59,5.59,0,0,0-.89,10.32Z"/><path d="M467.4,81.21a5.59,5.59,0,0,0-.92-9.88c-18.38-7.46-25-34.54-25-34.81a5.59,5.59,0,0,0-11,.47c-4,27.25-23.69,33.92-24.49,34.18a5.59,5.59,0,0,0-.89,10.32,41.3,41.3,0,0,1,12.07,9.61,5.59,5.59,0,1,0,8.36-7.41,58.14,58.14,0,0,0-6.86-6.6,50.55,50.55,0,0,0,18.06-21.58c3.73,7.49,9.4,16,17.6,21.79-7.92,7.06-20,20.72-22.2,40a5.58,5.58,0,0,0,4.9,6.2c.22,0,.44,0,.65,0a5.59,5.59,0,0,0,5.54-4.94C445.92,95.37,467.19,81.34,467.4,81.21Z"/><path d="M196.7,473.56a5.59,5.59,0,0,0,4.9,6.2,4.87,4.87,0,0,0,.66,0,5.59,5.59,0,0,0,5.54-4.94c2.7-23.17,24-37.21,24.17-37.34a5.58,5.58,0,0,0-.91-9.87c-18.38-7.47-25-34.55-25-34.82a5.59,5.59,0,0,0-11,.47c-3.94,27.26-23.68,33.92-24.49,34.18a5.59,5.59,0,0,0-.88,10.32,43.14,43.14,0,0,1,13.84,11.72,5.59,5.59,0,1,0,8.72-7,60.33,60.33,0,0,0-9-9.13,50.56,50.56,0,0,0,18.05-21.57c3.74,7.48,9.4,15.95,17.61,21.78C211,440.67,198.94,454.33,196.7,473.56Z"/><path d="M293.83,107.75A5.59,5.59,0,0,0,290,118.24l.68.25A5.59,5.59,0,1,0,294.51,108Z"/><path d="M153.45,282.57l-.68-.25a5.59,5.59,0,1,0-3.84,10.49l.68.25a5.59,5.59,0,0,0,3.84-10.49Z"/><path d="M451,414.68a5.59,5.59,0,0,0-3.85,10.49l.68.25a5.69,5.69,0,0,0,1.93.34,5.59,5.59,0,0,0,1.92-10.83Z"/></svg>