<?xml version="1.0"?>
<svg width="100" height="125" xmlns="http://www.w3.org/2000/svg" xmlns:svg="http://www.w3.org/2000/svg" enable-background="new 0 0 100 100" version="1.1" xml:space="preserve">
 <g class="layer">
  <title>Layer 1</title>
  <g id="svg_1">
   <g id="svg_2">
    <path d="m50,57.69c-2.05,0 -3.99,-0.8 -5.44,-2.25c-3,-3 -3,-7.88 0,-10.88c1.46,-1.46 3.39,-2.26 5.44,-2.26s3.99,0.81 5.44,2.26c3,3 3,7.88 0,10.88c-1.45,1.45 -3.38,2.25 -5.44,2.25zm0,-14.09c-1.71,0 -3.31,0.67 -4.52,1.88c-2.49,2.49 -2.49,6.55 0,9.04c1.21,1.21 2.81,1.87 4.52,1.87c1.71,0 3.31,-0.66 4.52,-1.87c2.49,-2.49 2.49,-6.55 0,-9.04c-1.21,-1.21 -2.81,-1.88 -4.52,-1.88z" id="svg_3"/>
    <path d="m49.27,62.22c-0.7,-0.04 -1.4,-0.15 -2.08,-0.31l0.3,-1.26c0.6,0.14 1.23,0.23 1.86,0.27l-0.08,1.3zm2.11,-0.06l-0.14,-1.29c0.62,-0.07 1.24,-0.2 1.85,-0.37l0.36,1.24c-0.68,0.2 -1.37,0.34 -2.07,0.42zm-6.2,-0.91c-0.64,-0.27 -1.27,-0.61 -1.86,-0.99l0.71,-1.09c0.53,0.34 1.09,0.64 1.67,0.89l-0.52,1.19zm10.24,-0.27l-0.58,-1.17c0.56,-0.27 1.1,-0.6 1.61,-0.98l0.77,1.05c-0.57,0.42 -1.18,0.79 -1.8,1.1zm-13.76,-2.02c-0.11,-0.1 -0.21,-0.2 -0.31,-0.31c-0.4,-0.39 -0.77,-0.81 -1.1,-1.25l1.03,-0.79c0.3,0.39 0.63,0.77 0.99,1.12c0.09,0.1 0.18,0.19 0.28,0.28l-0.89,0.95zm17.15,-0.47l-0.94,-0.9c0.44,-0.45 0.84,-0.95 1.19,-1.46l1.08,0.73c-0.39,0.58 -0.84,1.13 -1.33,1.63zm-19.69,-2.88c-0.32,-0.62 -0.59,-1.28 -0.8,-1.95l1.24,-0.39c0.19,0.6 0.43,1.19 0.72,1.74l-1.16,0.6zm22.05,-0.59l-1.19,-0.54c0.26,-0.57 0.47,-1.16 0.62,-1.78l1.26,0.32c-0.17,0.69 -0.41,1.36 -0.69,2zm-23.3,-3.42c-0.07,-0.53 -0.11,-1.07 -0.11,-1.6c0,-0.17 0.01,-0.34 0.01,-0.51l1.3,0.06c0,0.15 -0.01,0.3 -0.01,0.45c0,0.47 0.03,0.95 0.1,1.43l-1.29,0.17zm24.33,-0.66l-1.29,-0.1c0.02,-0.28 0.03,-0.56 0.03,-0.84c0,-0.35 -0.02,-0.7 -0.05,-1.04l1.29,-0.13c0.04,0.39 0.06,0.78 0.06,1.17c0,0.31 -0.01,0.63 -0.04,0.94zm-22.89,-3.27l-1.27,-0.27c0.15,-0.69 0.36,-1.37 0.62,-2.02l1.21,0.49c-0.24,0.58 -0.43,1.19 -0.56,1.8zm21.24,-0.57c-0.16,-0.6 -0.38,-1.2 -0.65,-1.76l1.18,-0.56c0.3,0.64 0.54,1.3 0.72,1.98l-1.25,0.34zm-19.82,-2.9l-1.11,-0.69c0.38,-0.6 0.8,-1.17 1.27,-1.69l0.97,0.87c-0.42,0.47 -0.8,0.97 -1.13,1.51zm18.22,-0.49c-0.36,-0.52 -0.77,-1 -1.22,-1.45c-0.18,-0.18 -0.37,-0.36 -0.57,-0.53l0.85,-0.98c0.22,0.19 0.44,0.39 0.65,0.59c0.49,0.5 0.95,1.04 1.35,1.62l-1.06,0.75zm-15.72,-2.31l-0.8,-1.02c0.55,-0.44 1.15,-0.83 1.76,-1.16l0.62,1.15c-0.55,0.29 -1.08,0.64 -1.58,1.03zm12.41,-0.78c-0.54,-0.32 -1.11,-0.6 -1.7,-0.83l0.47,-1.21c0.66,0.25 1.29,0.56 1.9,0.92l-0.67,1.12zm-9.1,-1l-0.41,-1.24c0.67,-0.22 1.36,-0.38 2.05,-0.49l0.2,1.29c-0.63,0.09 -1.25,0.24 -1.84,0.44zm5.59,-0.35c-0.61,-0.12 -1.24,-0.19 -1.87,-0.21l0.03,-1.3c0.7,0.02 1.41,0.1 2.09,0.23l-0.25,1.28z" id="svg_4"/>
    <path d="m50.08,88.87l-0.01,-1.3c0.66,0 1.32,-0.02 1.97,-0.05l0.07,1.29c-0.68,0.04 -1.35,0.06 -2.03,0.06zm-2.03,-0.05c-0.68,-0.03 -1.36,-0.08 -2.03,-0.15l0.13,-1.3c0.65,0.07 1.31,0.12 1.96,0.15l-0.06,1.3zm6.09,-0.17l-0.14,-1.29c0.65,-0.07 1.3,-0.16 1.95,-0.26l0.2,1.28c-0.67,0.11 -1.34,0.2 -2.01,0.27zm-10.14,-0.24c-0.67,-0.1 -1.34,-0.23 -2,-0.37l0.27,-1.27c0.64,0.14 1.28,0.25 1.93,0.36l-0.2,1.28zm14.15,-0.4l-0.27,-1.27c0.64,-0.14 1.28,-0.29 1.91,-0.46l0.34,1.25c-0.65,0.18 -1.32,0.34 -1.98,0.48zm-18.13,-0.43c-0.65,-0.18 -1.3,-0.37 -1.95,-0.58l0.4,-1.23c0.62,0.2 1.25,0.38 1.88,0.55l-0.33,1.26zm22.06,-0.62l-0.4,-1.24c0.62,-0.2 1.24,-0.42 1.85,-0.66l0.47,1.21c-0.64,0.25 -1.28,0.48 -1.92,0.69zm-25.93,-0.63c-0.63,-0.24 -1.26,-0.5 -1.88,-0.77l0.52,-1.19c0.61,0.27 1.21,0.52 1.82,0.75l-0.46,1.21zm29.73,-0.83l-0.54,-1.19c0.6,-0.27 1.19,-0.55 1.78,-0.85l0.59,1.15c-0.61,0.32 -1.22,0.61 -1.83,0.89zm-33.45,-0.81c-0.6,-0.31 -1.2,-0.63 -1.79,-0.97l0.65,-1.13c0.57,0.33 1.15,0.64 1.73,0.94l-0.59,1.16zm37.06,-1.05l-0.65,-1.12c0.57,-0.33 1.12,-0.67 1.68,-1.03l0.71,1.08c-0.57,0.38 -1.15,0.73 -1.74,1.07zm-40.58,-0.98c-0.57,-0.36 -1.13,-0.75 -1.68,-1.15l0.76,-1.05c0.54,0.38 1.08,0.76 1.62,1.11l-0.7,1.09zm43.99,-1.24l-0.77,-1.05c0.53,-0.39 1.05,-0.79 1.56,-1.2l0.82,1c-0.53,0.43 -1.07,0.85 -1.61,1.25zm-47.29,-1.14c-0.52,-0.43 -1.04,-0.87 -1.54,-1.32l0.86,-0.97c0.5,0.44 0.99,0.86 1.5,1.27l-0.82,1.02zm50.44,-1.43l-0.87,-0.96c0.47,-0.43 0.94,-0.87 1.39,-1.32l0.96,0.88l-0.04,0.04c-0.47,0.47 -0.95,0.92 -1.44,1.36zm-53.46,-1.29l-0.08,-0.07c-0.45,-0.46 -0.9,-0.92 -1.32,-1.4l0.96,-0.87c0.41,0.46 0.84,0.91 1.28,1.35l0.08,0.07l-0.92,0.92zm56.33,-1.59l-0.96,-0.87c0.44,-0.49 0.86,-0.98 1.27,-1.49l1.01,0.82c-0.42,0.52 -0.86,1.04 -1.32,1.54zm-59.06,-1.42c-0.43,-0.53 -0.85,-1.06 -1.25,-1.61l1.05,-0.77c0.39,0.53 0.79,1.05 1.2,1.56l-1,0.82zm61.62,-1.74l-1.05,-0.76c0.39,-0.53 0.76,-1.07 1.11,-1.62l1.09,0.71c-0.36,0.56 -0.75,1.12 -1.15,1.67zm-64.03,-1.54c-0.37,-0.57 -0.72,-1.14 -1.06,-1.73l1.12,-0.65c0.33,0.56 0.67,1.12 1.03,1.67l-1.09,0.71zm66.24,-1.87l-1.12,-0.65c0.33,-0.57 0.64,-1.14 0.93,-1.72l1.16,0.58c-0.3,0.61 -0.63,1.2 -0.97,1.79zm-68.28,-1.64c-0.31,-0.61 -0.61,-1.22 -0.88,-1.84l1.18,-0.53c0.27,0.6 0.56,1.19 0.86,1.77l-1.16,0.6zm70.13,-1.98l-1.19,-0.53c0.26,-0.6 0.51,-1.2 0.75,-1.82l1.21,0.47c-0.24,0.63 -0.5,1.26 -0.77,1.88zm-71.8,-1.73c-0.24,-0.64 -0.47,-1.28 -0.68,-1.92l1.24,-0.4c0.2,0.62 0.42,1.23 0.66,1.85l-1.22,0.47zm73.25,-2.07l-1.24,-0.4c0.2,-0.62 0.39,-1.25 0.56,-1.88l1.25,0.33c-0.17,0.66 -0.36,1.31 -0.57,1.95zm-74.51,-1.8c-0.18,-0.66 -0.34,-1.31 -0.48,-1.98l1.27,-0.27c0.14,0.64 0.29,1.28 0.46,1.91l-1.25,0.34zm75.55,-2.13l-1.27,-0.27c0.14,-0.64 0.26,-1.28 0.36,-1.93l1.28,0.2c-0.1,0.67 -0.23,1.34 -0.37,2zm-76.41,-1.85c-0.1,-0.66 -0.19,-1.34 -0.27,-2.01l1.3,-0.14c0.07,0.65 0.15,1.3 0.26,1.95l-1.29,0.2zm77.04,-2.17l-1.29,-0.13c0.07,-0.65 0.12,-1.31 0.15,-1.96l1.3,0.07c-0.04,0.68 -0.09,1.35 -0.16,2.02zm-77.47,-1.87c-0.04,-0.68 -0.06,-1.35 -0.06,-2.03l1.3,0c0,0.65 0.02,1.31 0.06,1.96l-1.3,0.07zm76.38,-2.18c0,-0.66 -0.02,-1.31 -0.05,-1.97l1.3,-0.07c0.03,0.68 0.05,1.36 0.05,2.03l-1.3,0.01zm-75.1,-1.82l-1.29,-0.06c0.03,-0.68 0.08,-1.36 0.15,-2.03l1.29,0.13c-0.07,0.65 -0.11,1.31 -0.15,1.96zm74.89,-2.11c-0.06,-0.65 -0.15,-1.3 -0.25,-1.95l1.28,-0.2c0.11,0.67 0.2,1.34 0.27,2.02l-1.3,0.13zm-74.49,-1.8l-1.29,-0.2c0.11,-0.67 0.23,-1.33 0.36,-2l1.28,0.27c-0.14,0.64 -0.25,1.28 -0.35,1.93zm73.88,-2.08c-0.13,-0.64 -0.29,-1.28 -0.46,-1.91l1.26,-0.34c0.18,0.66 0.33,1.32 0.47,1.98l-1.27,0.27zm-73.08,-1.77l-1.26,-0.33c0.17,-0.65 0.36,-1.3 0.57,-1.95l1.24,0.4c-0.2,0.62 -0.38,1.25 -0.55,1.88zm72.06,-2.03c-0.2,-0.62 -0.42,-1.24 -0.65,-1.85l1.21,-0.47c0.25,0.64 0.47,1.28 0.68,1.92l-1.24,0.4zm-70.86,-1.71l-1.22,-0.46c0.24,-0.63 0.5,-1.26 0.77,-1.88l1.19,0.52c-0.26,0.6 -0.51,1.21 -0.74,1.82zm69.46,-1.96c-0.27,-0.59 -0.55,-1.18 -0.85,-1.77l1.16,-0.59c0.31,0.6 0.6,1.22 0.87,1.83l-1.18,0.53zm-67.88,-1.64l-1.16,-0.58c0.3,-0.6 0.62,-1.2 0.96,-1.79l1.13,0.64c-0.32,0.58 -0.64,1.15 -0.93,1.73zm66.09,-1.86c-0.33,-0.56 -0.67,-1.12 -1.03,-1.67l1.09,-0.71c0.37,0.57 0.73,1.14 1.07,1.73l-1.13,0.65zm-64.14,-1.54l-1.09,-0.71c0.37,-0.57 0.75,-1.13 1.15,-1.68l1.05,0.76c-0.38,0.54 -0.75,1.08 -1.11,1.63zm62,-1.75c-0.39,-0.53 -0.79,-1.05 -1.2,-1.56l1.01,-0.82c0.43,0.53 0.84,1.07 1.24,1.61l-1.05,0.77zm-59.7,-1.44l-1.01,-0.81c0.42,-0.53 0.86,-1.05 1.31,-1.55l0.97,0.86c-0.43,0.49 -0.86,0.99 -1.27,1.5zm57.22,-1.61c-0.44,-0.49 -0.89,-0.96 -1.35,-1.43l-0.15,-0.14l0.91,-0.93l0.15,0.15c0.49,0.48 0.95,0.98 1.4,1.48l-0.96,0.87zm-54.6,-1.32l-0.92,-0.92l0.11,-0.1c0.45,-0.45 0.9,-0.88 1.36,-1.3l0.87,0.96c-0.44,0.41 -0.88,0.82 -1.31,1.25l-0.11,0.11zm51.67,-1.6c-0.49,-0.44 -0.99,-0.86 -1.5,-1.27l0.81,-1.01c0.53,0.42 1.05,0.86 1.56,1.31l-0.87,0.97zm-48.76,-1.04l-0.82,-1.01c0.52,-0.43 1.06,-0.85 1.6,-1.25l0.77,1.05c-0.52,0.39 -1.04,0.79 -1.55,1.21zm45.69,-1.42c-0.53,-0.38 -1.07,-0.75 -1.62,-1.1l0.7,-1.1c0.57,0.37 1.13,0.75 1.69,1.15l-0.77,1.05zm-42.52,-0.91l-0.72,-1.09c0.57,-0.37 1.15,-0.73 1.73,-1.07l0.66,1.13c-0.57,0.32 -1.12,0.67 -1.67,1.03zm39.22,-1.21c-0.57,-0.33 -1.15,-0.64 -1.73,-0.93l0.58,-1.16c0.61,0.3 1.2,0.62 1.8,0.96l-0.65,1.13zm-35.83,-0.77l-0.59,-1.16c0.6,-0.31 1.21,-0.6 1.83,-0.88l0.53,1.18c-0.59,0.27 -1.18,0.56 -1.77,0.86zm32.32,-1c-0.6,-0.26 -1.21,-0.51 -1.82,-0.74l0.46,-1.22c0.63,0.24 1.26,0.5 1.88,0.77l-0.52,1.19zm-28.73,-0.62l-0.47,-1.21c0.63,-0.24 1.27,-0.47 1.91,-0.68l0.41,1.23c-0.63,0.21 -1.24,0.43 -1.85,0.66zm25.06,-0.77c-0.63,-0.2 -1.26,-0.38 -1.89,-0.55l0.33,-1.25c0.65,0.17 1.3,0.36 1.95,0.56l-0.39,1.24zm-21.33,-0.45l-0.34,-1.26c0.65,-0.18 1.31,-0.34 1.98,-0.48l0.27,1.27c-0.64,0.14 -1.28,0.29 -1.91,0.47zm17.52,-0.54c-0.64,-0.14 -1.28,-0.25 -1.93,-0.35l0.2,-1.29c0.66,0.11 1.33,0.23 2,0.36l-0.27,1.28zm-13.68,-0.29l-0.21,-1.29c0.67,-0.1 1.34,-0.2 2.02,-0.27l0.14,1.29c-0.65,0.07 -1.3,0.16 -1.95,0.27zm9.8,-0.31c-0.65,-0.06 -1.31,-0.11 -1.96,-0.14l0.06,-1.3c0.68,0.03 1.35,0.08 2.03,0.15l-0.13,1.29zm-5.89,-0.12l-0.08,-1.3c0.68,-0.04 1.36,-0.06 2.04,-0.06l0,1.3c-0.65,0 -1.31,0.02 -1.96,0.06z" id="svg_5"/>
   </g>
  </g>
 </g>
</svg>