<?xml version="1.0" ?>
<!-- Uploaded to: SVG Repo, www.svgrepo.com, Generator: SVG Repo Mixer Tools -->
<svg fill="#000000" width="800px" height="800px" viewBox="0 0 64 64" xmlns="http://www.w3.org/2000/svg">
<g data-name="Star magic" id="Star_magic">
<path d="M16.29,32.27c0,1.22,1.29,1.87,3.65,3.06a20.12,20.12,0,0,1,8.87,8.87c1.19,2.36,1.84,3.66,3.06,3.66s1.88-1.3,3.06-3.66a20.23,20.23,0,0,1,8.87-8.87c2.36-1.19,3.66-1.84,3.66-3.06s-1.3-1.87-3.66-3.06a20.12,20.12,0,0,1-8.87-8.87c-1.18-2.36-1.84-3.66-3.06-3.66S30,18,28.81,20.34a20,20,0,0,1-8.87,8.87C17.58,30.4,16.29,31.05,16.29,32.27Zm14.31-11c.36-.71.91-1.8,1.27-2.33a24.66,24.66,0,0,1,1.28,2.33A22.12,22.12,0,0,0,42.9,31c.71.36,1.81.91,2.34,1.27a22.82,22.82,0,0,1-2.34,1.27,22.17,22.17,0,0,0-9.75,9.76,24.89,24.89,0,0,1-1.28,2.34C31.51,45.11,31,44,30.6,43.3a22.19,22.19,0,0,0-9.76-9.76,22.61,22.61,0,0,1-2.33-1.27c.53-.36,1.62-.91,2.33-1.27A22.14,22.14,0,0,0,30.6,21.24Z"/>
<path d="M10.16,20.2a10.6,10.6,0,0,1,6.36,1.7c1.07.7,2,1.43,2.92.91s.77-1.42.68-3a10.6,10.6,0,0,1,1.7-6.36c.87-1.31,1.39-2.1.91-2.92s-1.42-.77-3-.68a10.5,10.5,0,0,1-6.35-1.7c-1.32-.86-2.11-1.38-2.93-.91s-.77,1.42-.68,3a10.53,10.53,0,0,1-1.7,6.36c-.86,1.31-1.38,2.1-.91,2.92S8.59,20.29,10.16,20.2Zm-.41-2.5a12.63,12.63,0,0,0,2-7.58c0-.17,0-.41,0-.64l.54.35a12.58,12.58,0,0,0,7.57,2l.64,0-.35.54a12.58,12.58,0,0,0-2,7.57c0,.17,0,.41,0,.64l-.54-.35a12.62,12.62,0,0,0-6.87-2.05l-.71,0-.64,0Z"/>
<path d="M54.22,44.18c.09-1.57.14-2.52-.68-3s-1.61.05-2.93.91a10.56,10.56,0,0,1-6.36,1.7h0c-1.56-.09-2.51-.14-3,.68s0,1.61.91,2.92a10.6,10.6,0,0,1,1.7,6.36c-.09,1.57-.14,2.52.67,3s1.79-.16,2.93-.91a10.53,10.53,0,0,1,6.36-1.7c1.57.09,2.52.14,3-.68s0-1.61-.91-2.92A10.53,10.53,0,0,1,54.22,44.18Zm-.26,8a12.7,12.7,0,0,0-7.58,2l-.54.35c0-.23,0-.47,0-.64a12.58,12.58,0,0,0-2-7.57l-.35-.54.64,0a12.58,12.58,0,0,0,7.57-2l.54-.35c0,.23,0,.47,0,.64a12.58,12.58,0,0,0,2,7.57c.09.15.22.35.35.54C54.37,52.17,54.13,52.15,54,52.14Z"/>
<path d="M42.83,20.68c-.07,1.31-.12,2.17.65,2.61s1.69-.16,2.59-.75a8.55,8.55,0,0,1,5.11-1.37c1.31.08,2.18.13,2.62-.64s0-1.49-.75-2.59a8.48,8.48,0,0,1-1.37-5.11c.07-1.31.12-2.18-.64-2.62s-1.5,0-2.59.75a8.6,8.6,0,0,1-5.12,1.37c-1.31-.08-2.17-.13-2.62.64s0,1.49.75,2.59A8.43,8.43,0,0,1,42.83,20.68Zm.39-6.35h0a10.53,10.53,0,0,0,6.32-1.7l.15-.1a1,1,0,0,1,0,.18A10.58,10.58,0,0,0,51.38,19l.1.15H51.3A10.5,10.5,0,0,0,45,20.87l-.15.1a1.21,1.21,0,0,0,0-.18,10.5,10.5,0,0,0-1.69-6.33,1,1,0,0,1-.1-.15Z"/>
<path d="M12.91,52.75a8.46,8.46,0,0,1,4.67,2.49c.71.74,1.43,1.6,2.35,1.31s1-1.11,1.22-2.4a8.52,8.52,0,0,1,2.49-4.67c.95-.91,1.58-1.51,1.32-2.36s-1.11-1-2.41-1.22a8.46,8.46,0,0,1-4.67-2.49c-.91-.95-1.5-1.57-2.35-1.31s-1,1.11-1.22,2.4a8.52,8.52,0,0,1-2.49,4.67c-1,.91-1.58,1.51-1.32,2.36S11.61,52.52,12.91,52.75Zm.29-2.13h0a10.5,10.5,0,0,0,3.08-5.78l0-.17.12.12a10.48,10.48,0,0,0,5.78,3.08l.18,0-.13.13a10.5,10.5,0,0,0-3.08,5.78l0,.17L19,53.85a10.52,10.52,0,0,0-5.78-3.07l-.18,0Z"/>
</g>
</svg>